PathFileType	4	(X/Y/Z)	E:\Qualisys_Data\Carbon_Farble_Plate\Data\Amateur_Runner\S1\T2\S1T2V12_c3d.trc
DataRate	CameraRate	NumFrames	NumMarkers	Units	OrigDataRate	OrigDataStartFrame	OrigNumFrames
200.000000	200.000000	5	39	mm	200.000000	0	312
Frame#	Time	LSHO			RSHO			LICST			RICST			LASIS			LHEEL			RASIS			LTROC			RTROC			SACR			LTH1			LSK4			LTH2			LTH3			RHM5			LSK2			LTH4			RTH1			LTOE			RTH2			RTH3			RTH4			LLEP			RLEP			LSK1			LSK3			RSK1			LHM5			RSK2			LFT1			RSK3			RSK4			LLME			RLME			RTOE			RHEEL			RFT1			RFT2			LFT2			
		X1	Y1	Z1	X2	Y2	Z2	X3	Y3	Z3	X4	Y4	Z4	X5	Y5	Z5	X6	Y6	Z6	X7	Y7	Z7	X8	Y8	Z8	X9	Y9	Z9	X10	Y10	Z10	X11	Y11	Z11	X12	Y12	Z12	X13	Y13	Z13	X14	Y14	Z14	X15	Y15	Z15	X16	Y16	Z16	X17	Y17	Z17	X18	Y18	Z18	X19	Y19	Z19	X20	Y20	Z20	X21	Y21	Z21	X22	Y22	Z22	X23	Y23	Z23	X24	Y24	Z24	X25	Y25	Z25	X26	Y26	Z26	X27	Y27	Z27	X28	Y28	Z28	X29	Y29	Z29	X30	Y30	Z30	X31	Y31	Z31	X32	Y32	Z32	X33	Y33	Z33	X34	Y34	Z34	X35	Y35	Z35	X36	Y36	Z36	X37	Y37	Z37	X38	Y38	Z38	X39	Y39	Z39	

1	0	-2304.695556640625	1565.1650390625	-526.921630859375	-2391.2705078125	1553.9873046875	-217.6082458496094	-2335.459228515625	1079.71240234375	-506.9889831542969	-2348.14697265625	1109.302856445312	-212.7306976318359	-2294.722900390625	1038.099731445312	-479.2338256835938	-2843.68798828125	308.8434143066406	-413.9139709472656	-2310.308837890625	1061.254272460938	-217.3759613037109	-2422.158447265625	973.7938232421875	-523.1610717773438	-2408.251708984375	970.12548828125	-183.2884521484375	-2460.2333984375	1115.363037109375	-361.55322265625	-2352.8369140625	795.3278198242188	-495.9185485839844	-2757.152099609375	396.2236328125	-445.7773132324219	-2428.090576171875	817.036376953125	-525.797119140625	-2388.222900390625	698.440673828125	-479.7218627929688	-2025.503173828125	154.4620971679688	-193.8599700927734	-2687.9609375	465.0085144042969	-481.3930053710938	-2466.9365234375	725.6035766601562	-500.7094421386719	-2239.288330078125	887.8530883789062	-203.8485107421875	-2752.833251953125	71.97515869140625	-402.3499755859375	-2308.9384765625	852.4468994140625	-182.3686370849609	-2195.966064453125	795.8323364257812	-210.2240142822266	-2269.845703125	762.4400634765625	-200.3862915039062	-2498.155029296875	573.632080078125	-466.9217834472656	-2186.70068359375	614.1761474609375	-225.3865966796875	-2628.34716796875	404.9264221191406	-475.7819213867188	-2706.750244140625	338.3483581542969	-471.931640625	-2170.30810546875	421.0254211425781	-199.7176818847656	-2810.89599609375	114.493766784668	-469.6695251464844	-2250.841064453125	412.8072509765625	-219.272705078125	-2865.840576171875	292.2832336425781	-387.7884826660156	-2156.083984375	322.455078125	-212.5960083007812	-2232.6533203125	314.9917602539062	-240.9741821289062	-2805.140380859375	274.2391967773438	-465.8727722167969	-2163.65625	183.7084808349609	-216.0108337402344	-1968.221069335938	192.5865783691406	-264.3868103027344	-2215.06787109375	126.3097381591797	-265.8643188476562	-2190.7578125	102.2665252685547	-295.6274719238281	-2200.452392578125	99.47391510009766	-240.3977203369141	-2873.79541015625	290.1913757324219	-440.8988647460938
2	0.005	-2287.153564453125	1566.160888671875	-524.82373046875	-2375.083251953125	1554.028686523438	-216.8546752929688	-2317.53759765625	1081.328857421875	-506.3270263671875	-2330.662109375	1108.321655273438	-212.6945343017578	-2276.943359375	1038.76171875	-479.3087158203125	-2833.9814453125	316.6501770019531	-416.7473754882812	-2292.0498046875	1061.018676757812	-217.671142578125	-2404.753662109375	974.4451293945312	-523.3517456054688	-2391.416015625	970.0504150390624	-183.8232421875	-2442.155517578125	1115.358764648438	-360.8855590820312	-2334.158447265625	795.5145874023438	-495.5973510742188	-2741.959228515625	401.119140625	-446.2368469238281	-2410.543212890625	817.6595458984375	-525.4932861328125	-2370.16162109375	698.7740478515625	-480.0477600097656	-1997.04248046875	158.0072784423828	-194.7350769042969	-2671.07373046875	468.2915649414062	-481.3679809570312	-2449.0390625	725.94482421875	-500.1480102539062	-2222.457763671875	885.6376953125	-203.5240478515625	-2742.2861328125	77.90525817871094	-400.5304260253906	-2292.584716796875	850.88525390625	-181.3025817871094	-2180.500244140625	792.0517578125	-209.9258422851562	-2255.039794921875	760.0042114257812	-199.1314392089844	-2479.593505859375	573.3432006835938	-467.1088562011719	-2172.013427734375	611.5552978515625	-225.4364624023438	-2614.341796875	406.5679321289062	-475.2782897949219	-2692.536376953125	342.21630859375	-471.7909851074219	-2152.25439453125	420.367431640625	-199.1306762695312	-2800.470703125	119.9910659790039	-468.7203063964844	-2231.6396484375	408.6592407226562	-218.7536163330078	-2854.640380859375	298.9958801269531	-388.4092102050781	-2134.623779296875	321.6018676757812	-211.9469909667969	-2210.65966796875	312.0990295410156	-241.431640625	-2792.8447265625	279.5086364746094	-466.1274719238281	-2136.331298828125	183.0896911621094	-215.4041748046875	-1940.9365234375	198.6249389648438	-264.0931701660156	-2185.77197265625	123.053596496582	-265.2197265625	-2160.384765625	100.2196960449219	-295.1046752929688	-2170.576171875	96.84996032714844	-240.4833068847656	-2861.5849609375	296.3170471191406	-442.030029296875
3	0.01	-2270.389892578125	1566.907836914062	-523.6895141601562	-2357.974365234375	1553.670043945312	-215.5605773925781	-2300.767333984375	1081.678466796875	-506.416748046875	-2313.138916015625	1108.497436523438	-211.9137268066406	-2260.002685546875	1039.346557617188	-479.0785217285156	-2822.4423828125	322.8493347167969	-417.4694213867188	-2274.49853515625	1060.81005859375	-217.0124053955078	-2387.344482421875	974.9688720703124	-523.0982055664062	-2372.99072265625	969.26611328125	-183.3889923095703	-2425.104248046875	1115.908935546875	-360.6403198242188	-2316.56005859375	796.14892578125	-495.331298828125	-2726.8134765625	406.1456604003906	-446.8868713378906	-2392.03076171875	817.6481323242188	-524.7421875	-2351.720703125	698.744384765625	-479.6584777832031	-1968.777099609375	160.0304718017578	-193.9487457275391	-2654.495361328125	471.5854797363281	-482.0207824707031	-2429.975830078125	725.6019897460938	-499.6323852539062	-2205.956298828125	882.666748046875	-203.2610778808594	-2731.362548828125	84.24617004394531	-398.5509033203125	-2276.252197265625	848.4607543945312	-180.5242004394531	-2165.633544921875	787.786376953125	-209.6939392089844	-2240.783203125	757.44970703125	-197.8155822753906	-2461.214599609375	572.9288330078125	-467.0980529785156	-2158.39306640625	609.0062255859375	-225.6842041015625	-2598.61279296875	408.6486511230469	-474.8795471191406	-2678.40478515625	345.7057189941406	-471.4709167480469	-2134.4833984375	418.6485595703125	-198.7770385742188	-2788.685546875	125.4929428100586	-467.4236450195312	-2212.840087890625	405.0992736816406	-219.0504608154297	-2843.993896484375	305.101806640625	-389.3844604492188	-2112.912109375	320.8961181640625	-211.1530456542969	-2188.222412109375	308.6989440917969	-240.3724822998047	-2780.472900390625	285.1339416503906	-466.2269592285156	-2113.49072265625	180.8204650878906	-217.3692474365234	-1915.69775390625	204.7957611083984	-264.1902465820312	-2156.47412109375	120.4134292602539	-263.8170471191406	-2131.641357421875	99.20013427734376	-294.7586059570312	-2140.815185546875	94.86884307861328	-239.9397430419922	-2850.190673828125	302.3136291503906	-443.1161193847656
4	0.015	-2253.27783203125	1567.612548828125	-522.405517578125	-2341.4794921875	1553.1484375	-214.976806640625	-2283.766357421875	1082.61767578125	-505.8329162597656	-2295.53271484375	1107.472290039062	-211.5330200195312	-2242.803955078125	1039.236938476562	-479.0305786132812	-2810.616455078125	328.3711242675781	-418.245361328125	-2256.863037109375	1059.8662109375	-217.2138366699219	-2369.96435546875	974.8739013671876	-523.03759765625	-2356.390625	968.6371459960938	-184.0448303222656	-2408.085693359375	1115.21875	-359.950439453125	-2298.1416015625	796.4154663085938	-495.1632080078125	-2710.69921875	410.8055114746094	-447.0940246582031	-2373.4189453125	817.1510620117188	-523.9512939453125	-2332.624755859375	698.9093017578125	-478.9932250976562	-1943.508056640625	163.2734222412109	-194.733642578125	-2636.780517578125	474.2933044433594	-482.4931640625	-2411.50634765625	725.1783447265625	-499.4228210449219	-2190.33251953125	879.0087890625	-203.7728729248047	-2719.60546875	89.72833251953125	-395.052490234375	-2260.023681640625	846.6204833984375	-179.5575714111328	-2150.63525390625	783.9081420898438	-209.3684234619141	-2225.807373046875	754.6094970703125	-195.9544830322266	-2441.22021484375	571.9915771484375	-466.7977294921875	-2144.838623046875	605.337646484375	-226.3187408447266	-2582.91064453125	410.3609008789062	-474.7926330566406	-2663.9638671875	349.2688293457031	-471.1421508789062	-2115.92138671875	417.3418273925781	-198.8649291992188	-2776.014404296875	131.1532135009766	-467.0338745117188	-2194.410888671875	402.3023986816406	-219.7489318847656	-2832.555908203125	310.3231811523438	-389.45751953125	-2092.542236328125	320.554443359375	-210.5957489013672	-2166.99755859375	306.1077880859375	-240.7411956787109	-2767.73095703125	290.4312438964844	-465.6819763183594	-2089.304931640625	180.2551422119141	-217.9553833007812	-1891.832397460938	210.0455780029297	-263.7358093261719	-2129.691162109375	118.7705612182617	-263.8178405761719	-2104.938720703125	98.76823425292967	-294.4989624023438	-2113.52001953125	93.14696502685548	-239.1656188964844	-2838.278076171875	307.7619018554688	-444.1940307617188
5	0.02	-2235.65283203125	1567.505249023438	-520.687255859375	-2325.0361328125	1551.931518554688	-213.9867095947266	-2266.746337890625	1082.257568359375	-505.6937255859375	-2278.314453125	1106.84912109375	-211.1579437255859	-2225.36376953125	1039.715209960938	-478.5621032714844	-2798.36767578125	333.6809692382812	-418.7780151367188	-2239.68603515625	1059.426513671875	-216.5591735839844	-2352.349853515625	974.5079345703124	-522.646484375	-2339.261962890625	967.304443359375	-184.3101348876953	-2390.98291015625	1114.485229492188	-359.1689758300781	-2279.31103515625	795.9461059570312	-493.7452392578125	-2696.103759765625	416.6560974121094	-448.9063110351562	-2354.5419921875	816.0872192382812	-523.3579711914062	-2313.228759765625	698.4124755859375	-478.3960571289062	-1918.786010742188	165.8027954101562	-194.3843383789062	-2618.91943359375	476.6522521972656	-482.67431640625	-2392.119873046875	723.9924926757812	-499.3131713867188	-2174.2646484375	875.1262817382812	-203.7251281738281	-2706.72607421875	95.97029113769533	-392.9887390136719	-2244.9150390625	844.0870971679688	-177.6921081542969	-2136.735595703125	780.0845336914062	-208.7378997802734	-2211.47216796875	750.8803100585938	-194.2571258544922	-2421.189453125	569.7158203125	-466.5423278808594	-2130.362060546875	603.1314697265625	-226.2297973632812	-2566.474853515625	411.3147888183594	-473.7842102050781	-2648.703369140625	351.9713134765625	-470.058349609375	-2097.921875	416.5322570800781	-198.2066040039062	-2762.905517578125	136.2807312011719	-465.6049194335938	-2175.572021484375	398.6416320800781	-219.8876800537109	-2821.28125	317.0127563476562	-391.4547729492188	-2072.04248046875	320.0565490722656	-210.4256896972656	-2145.94873046875	303.9278564453125	-240.6854705810547	-2755.201416015625	295.9053039550781	-466.5372314453125	-2063.50146484375	179.3739929199219	-215.0180053710938	-1868.829711914062	214.6051330566406	-263.8121643066406	-2105.262939453125	117.5817337036133	-262.8110961914062	-2079.24462890625	97.71244049072266	-293.9283447265625	-2087.7890625	91.58943939208984	-238.7758636474609	-2825.324462890625	312.7444763183594	-445.0266723632812
